D:\school\WTK\thesis\model\3dpredictsim\Results\batch_windlass\Pog_s1_tmt_bCst_d05_k800_WL10_ig24_act_TTC_GRF.mot
nRows=10
nColumns=19

name D:\school\WTK\thesis\model\3dpredictsim\Results\batch_windlass\Pog_s1_tmt_bCst_d05_k800_WL10_ig24_act_TTC_GRF.mot
datacolumns 19
datarows 10
range 0.0000000000 0.1048444321
endheader
time 	ground_force_vx	ground_force_vy	ground_force_vz	ground_force_px	ground_force_py	ground_force_pz	1_ground_force_vx	1_ground_force_vy	1_ground_force_vz	1_ground_force_px	1_ground_force_py	1_ground_force_pz	ground_torque_x	ground_torque_y	ground_torque_z	1_ground_torque_x	1_ground_torque_y	1_ground_torque_z
        0.0000000000	      -41.2398782399	       29.6628020611	        5.6511103683	        0.1547088019	        0.0000000000	        0.0689342603	       96.8942662905	      405.4491033230	        1.9019120932	       -0.3653659312	        0.0000000000	       -0.0321759997	        0.0000000000	        0.0000000000	        0.0000000000	        0.0000000000	        0.0000000000	        0.0000000000	
        0.0116493813	      -98.9277096761	       84.8459811298	       16.5115742215	        0.1670814707	        0.0000000000	        0.0676886373	       66.9173504585	      303.1233119812	       -4.6881569223	       -0.3566276842	        0.0000000000	       -0.0277633597	        0.0000000000	        0.0000000000	        0.0000000000	        0.0000000000	        0.0000000000	        0.0000000000	
        0.0232987627	     -129.3594888807	      265.5245634533	       23.7962282163	        0.1855155148	        0.0000000000	        0.0684010113	       40.3111856668	      216.7780508719	      -17.2864107034	       -0.3452247570	        0.0000000000	       -0.0218125755	        0.0000000000	        0.0000000000	        0.0000000000	        0.0000000000	        0.0000000000	        0.0000000000	
        0.0349481440	      -90.5411175407	      592.4614363139	      -10.9394531129	        0.1951177645	        0.0000000000	        0.0676146859	       30.2379495362	      179.7008331173	      -20.1481058745	       -0.3442244663	        0.0000000000	       -0.0212589952	        0.0000000000	        0.0000000000	        0.0000000000	        0.0000000000	        0.0000000000	        0.0000000000	
        0.0465975254	     -144.4863496142	      872.4702821588	      -24.3928344807	        0.2078770863	        0.0000000000	        0.0655286092	       24.3802365521	      130.5258693510	      -18.9633752333	       -0.3438988072	        0.0000000000	       -0.0213087986	        0.0000000000	        0.0000000000	        0.0000000000	        0.0000000000	        0.0000000000	        0.0000000000	
        0.0582469067	     -165.2960520520	      975.8061300347	      -26.1394254852	        0.2167474669	        0.0000000000	        0.0635028266	        4.6017573101	       71.9351025111	      -16.6515830579	       -0.3447621647	        0.0000000000	       -0.0216447510	        0.0000000000	        0.0000000000	        0.0000000000	        0.0000000000	        0.0000000000	        0.0000000000	
        0.0698962880	     -155.8916958177	      941.3696291115	      -24.9646297033	        0.2212257458	        0.0000000000	        0.0622388717	       -6.4083311882	       11.7222446391	       -2.6587571285	       -0.3484142985	        0.0000000000	       -0.0207538049	        0.0000000000	        0.0000000000	        0.0000000000	        0.0000000000	        0.0000000000	        0.0000000000	
        0.0815456694	     -131.8142591250	      864.0674340115	      -24.5274118592	        0.2244393100	        0.0000000000	        0.0614612370	       -2.0108916185	        1.6859123139	        0.1232927332	        0.0000000000	        0.0000000000	        0.0000000000	        0.0000000000	        0.0000000000	        0.0000000000	        0.0000000000	        0.0000000000	        0.0000000000	
        0.0931950507	     -116.4875132900	      798.2357387582	      -21.7634571471	        0.2278026640	        0.0000000000	        0.0608970201	       -8.2050186344	        5.9870649947	        0.6601092515	        0.0000000000	        0.0000000000	        0.0000000000	        0.0000000000	        0.0000000000	        0.0000000000	        0.0000000000	        0.0000000000	        0.0000000000	
        0.1048444321	     -103.0373457376	      757.2360630399	      -21.3188671961	        0.2306246587	        0.0000000000	        0.0605084994	       -6.3409987309	        4.0490790411	        0.5426908105	        0.0000000000	        0.0000000000	        0.0000000000	        0.0000000000	        0.0000000000	        0.0000000000	        0.0000000000	        0.0000000000	        0.0000000000	
